<svg xmlns="http://www.w3.org/2000/svg" width="920" height="400" viewBox="0 0 920 400"><rect width="100%" height="100%" fill="#0f172a" rx="20" ry="20"/><text x="32" y="42" fill="#f8fafc" font-size="26" font-family="Arial, sans-serif" font-weight="700">Ablation Comparison</text><text x="32" y="66" fill="#cbd5e1" font-size="14" font-family="Arial, sans-serif">Production vs disabled-component variants on routing accuracy</text><text x="32" y="108" fill="#e2e8f0" font-size="14" font-family="Arial, sans-serif">production</text><rect x="220" y="90" width="660" height="26" rx="10" fill="#1e293b"/><rect x="220" y="90" width="514.8000000000001" height="26" rx="10" fill="#14b8a6"/><text x="888" y="108" fill="#f8fafc" font-size="13" font-family="Arial, sans-serif">78.0%</text><text x="32" y="162" fill="#e2e8f0" font-size="14" font-family="Arial, sans-serif">no pre screen</text><rect x="220" y="144" width="660" height="26" rx="10" fill="#1e293b"/><rect x="220" y="144" width="490.578" height="26" rx="10" fill="#14b8a6"/><text x="888" y="162" fill="#f8fafc" font-size="13" font-family="Arial, sans-serif">74.3%</text><text x="32" y="216" fill="#e2e8f0" font-size="14" font-family="Arial, sans-serif">no critic</text><rect x="220" y="198" width="660" height="26" rx="10" fill="#1e293b"/><rect x="220" y="198" width="514.8000000000001" height="26" rx="10" fill="#14b8a6"/><text x="888" y="216" fill="#f8fafc" font-size="13" font-family="Arial, sans-serif">78.0%</text><text x="32" y="270" fill="#e2e8f0" font-size="14" font-family="Arial, sans-serif">no retriever</text><rect x="220" y="252" width="660" height="26" rx="10" fill="#1e293b"/><rect x="220" y="252" width="514.8000000000001" height="26" rx="10" fill="#14b8a6"/><text x="888" y="270" fill="#f8fafc" font-size="13" font-family="Arial, sans-serif">78.0%</text><text x="32" y="324" fill="#e2e8f0" font-size="14" font-family="Arial, sans-serif">only classification</text><rect x="220" y="306" width="660" height="26" rx="10" fill="#1e293b"/><rect x="220" y="306" width="514.8000000000001" height="26" rx="10" fill="#14b8a6"/><text x="888" y="324" fill="#f8fafc" font-size="13" font-family="Arial, sans-serif">78.0%</text></svg>