<svg xmlns="http://www.w3.org/2000/svg" width="920" height="498" viewBox="0 0 920 498"><rect width="100%" height="100%" fill="#0f172a" rx="20" ry="20"/><text x="32" y="42" fill="#f8fafc" font-size="26" font-family="Arial, sans-serif" font-weight="700">Domain Confusion Matrix</text><text x="32" y="66" fill="#cbd5e1" font-size="14" font-family="Arial, sans-serif">Rows = expected labels, columns = predicted labels</text><text x="256.0" y="102" fill="#e2e8f0" font-size="13" text-anchor="middle" font-family="Arial, sans-serif">medical</text><text x="328.0" y="102" fill="#e2e8f0" font-size="13" text-anchor="middle" font-family="Arial, sans-serif">legal</text><text x="400.0" y="102" fill="#e2e8f0" font-size="13" text-anchor="middle" font-family="Arial, sans-serif">general</text><text x="472.0" y="102" fill="#e2e8f0" font-size="13" text-anchor="middle" font-family="Arial, sans-serif">unknown</text><text x="204" y="162" fill="#e2e8f0" font-size="13" text-anchor="end" font-family="Arial, sans-serif">medical</text><rect x="220" y="120" width="68" height="68" rx="10" fill="rgb(15,100,110)" stroke="#334155" stroke-width="1"/><text x="254.0" y="160" fill="#f8fafc" font-size="16" text-anchor="middle" font-family="Arial, sans-serif" font-weight="700">88</text><rect x="292" y="120" width="68" height="68" rx="10" fill="rgb(15,235,235)" stroke="#334155" stroke-width="1"/><text x="326.0" y="160" fill="#e2e8f0" font-size="16" text-anchor="middle" font-family="Arial, sans-serif" font-weight="700">0</text><rect x="364" y="120" width="68" height="68" rx="10" fill="rgb(15,178,178)" stroke="#334155" stroke-width="1"/><text x="398.0" y="160" fill="#e2e8f0" font-size="16" text-anchor="middle" font-family="Arial, sans-serif" font-weight="700">37</text><rect x="436" y="120" width="68" height="68" rx="10" fill="rgb(15,235,235)" stroke="#334155" stroke-width="1"/><text x="470.0" y="160" fill="#e2e8f0" font-size="16" text-anchor="middle" font-family="Arial, sans-serif" font-weight="700">0</text><text x="204" y="234" fill="#e2e8f0" font-size="13" text-anchor="end" font-family="Arial, sans-serif">legal</text><rect x="220" y="192" width="68" height="68" rx="10" fill="rgb(15,222,222)" stroke="#334155" stroke-width="1"/><text x="254.0" y="232" fill="#e2e8f0" font-size="16" text-anchor="middle" font-family="Arial, sans-serif" font-weight="700">8</text><rect x="292" y="192" width="68" height="68" rx="10" fill="rgb(15,94,110)" stroke="#334155" stroke-width="1"/><text x="326.0" y="232" fill="#f8fafc" font-size="16" text-anchor="middle" font-family="Arial, sans-serif" font-weight="700">98</text><rect x="364" y="192" width="68" height="68" rx="10" fill="rgb(15,212,212)" stroke="#334155" stroke-width="1"/><text x="398.0" y="232" fill="#e2e8f0" font-size="16" text-anchor="middle" font-family="Arial, sans-serif" font-weight="700">15</text><rect x="436" y="192" width="68" height="68" rx="10" fill="rgb(15,228,228)" stroke="#334155" stroke-width="1"/><text x="470.0" y="232" fill="#e2e8f0" font-size="16" text-anchor="middle" font-family="Arial, sans-serif" font-weight="700">4</text><text x="204" y="306" fill="#e2e8f0" font-size="13" text-anchor="end" font-family="Arial, sans-serif">general</text><rect x="220" y="264" width="68" height="68" rx="10" fill="rgb(15,235,235)" stroke="#334155" stroke-width="1"/><text x="254.0" y="304" fill="#e2e8f0" font-size="16" text-anchor="middle" font-family="Arial, sans-serif" font-weight="700">0</text><rect x="292" y="264" width="68" height="68" rx="10" fill="rgb(15,235,235)" stroke="#334155" stroke-width="1"/><text x="326.0" y="304" fill="#e2e8f0" font-size="16" text-anchor="middle" font-family="Arial, sans-serif" font-weight="700">0</text><rect x="364" y="264" width="68" height="68" rx="10" fill="rgb(15,175,175)" stroke="#334155" stroke-width="1"/><text x="398.0" y="304" fill="#e2e8f0" font-size="16" text-anchor="middle" font-family="Arial, sans-serif" font-weight="700">39</text><rect x="436" y="264" width="68" height="68" rx="10" fill="rgb(15,233,233)" stroke="#334155" stroke-width="1"/><text x="470.0" y="304" fill="#e2e8f0" font-size="16" text-anchor="middle" font-family="Arial, sans-serif" font-weight="700">1</text><text x="204" y="378" fill="#e2e8f0" font-size="13" text-anchor="end" font-family="Arial, sans-serif">unknown</text><rect x="220" y="336" width="68" height="68" rx="10" fill="rgb(15,235,235)" stroke="#334155" stroke-width="1"/><text x="254.0" y="376" fill="#e2e8f0" font-size="16" text-anchor="middle" font-family="Arial, sans-serif" font-weight="700">0</text><rect x="292" y="336" width="68" height="68" rx="10" fill="rgb(15,235,235)" stroke="#334155" stroke-width="1"/><text x="326.0" y="376" fill="#e2e8f0" font-size="16" text-anchor="middle" font-family="Arial, sans-serif" font-weight="700">0</text><rect x="364" y="336" width="68" height="68" rx="10" fill="rgb(15,233,233)" stroke="#334155" stroke-width="1"/><text x="398.0" y="376" fill="#e2e8f0" font-size="16" text-anchor="middle" font-family="Arial, sans-serif" font-weight="700">1</text><rect x="436" y="336" width="68" height="68" rx="10" fill="rgb(15,221,221)" stroke="#334155" stroke-width="1"/><text x="470.0" y="376" fill="#e2e8f0" font-size="16" text-anchor="middle" font-family="Arial, sans-serif" font-weight="700">9</text></svg>